
<svg xmlns="http://www.w3.org/2000/svg"
     xmlns:xlink="http://www.w3.org/1999/xlink" version="1.1" width="1100"
     height="1060">
    <defs>
        <linearGradient x1="0%" y1="0%" x2="0%" y2="100%"
                        id="mx-gradient-dbdbdb-1-dbdbdb-1-s-0">
            <stop offset="0%" style="stop-color:#dbdbdb"/>
            <stop offset="100%" style="stop-color:#dbdbdb"/>
        </linearGradient>
    </defs>
    <g transform=" scale(0.96) translate(-1133.734375,-332)">
        <rect x="1705.2" y="501.2" width="5.6" height="5.6" fill="#000000"
              stroke="none" pointer-events="none"/>
        <rect x="1705.2" y="697.2" width="5.6" height="5.6" fill="#000000"
              stroke="none" pointer-events="none"/>
        <ellipse cx="1708" cy="602" rx="69.478171742" ry="69.478171742"
                 fill="#ffffff" stroke="#000000" stroke-width="5.6"
                 pointer-events="none"/>
        <path d="M 1708 551.6 L 1727.6 560 L 1708 568.4" fill="none"
              stroke="#000000" stroke-width="5.6" stroke-linejoin="round"
              stroke-linecap="round" stroke-miterlimit="10"
              pointer-events="none"/>
        <path d="M 1708 568.4 L 1688.4 576.8 L 1708 585.2" fill="none"
              stroke="#000000" stroke-width="5.6" stroke-linejoin="round"
              stroke-linecap="round" stroke-miterlimit="10"
              pointer-events="none"/>
        <path d="M 1708 585.2 L 1727.6 593.6 L 1708 602" fill="none"
              stroke="#000000" stroke-width="5.6" stroke-linejoin="round"
              stroke-linecap="round" stroke-miterlimit="10"
              pointer-events="none"/>
        <path d="M 1708 602 L 1688.4 610.4 L 1708 618.8" fill="none"
              stroke="#000000" stroke-width="5.6" stroke-linejoin="round"
              stroke-linecap="round" stroke-miterlimit="10"
              pointer-events="none"/>
        <path d="M 1708 618.8 L 1727.6 627.2 L 1708 635.6" fill="none"
              stroke="#000000" stroke-width="5.6" stroke-linejoin="round"
              stroke-linecap="round" stroke-miterlimit="10"
              pointer-events="none"/>
        <path d="M 1708 635.6 L 1688.4 644 L 1708 652.4" fill="none"
              stroke="#000000" stroke-width="5.6" stroke-linejoin="round"
              stroke-linecap="round" stroke-miterlimit="10"
              pointer-events="none"/>
        <path d="M 1708 506.8 L 1708 548.8" fill="none" stroke="#000000"
              stroke-width="5.6" stroke-linecap="square" stroke-miterlimit="10"
              pointer-events="none"/>
        <path d="M 1708 655.2 L 1708 697.2" fill="none" stroke="#000000"
              stroke-width="5.6" stroke-linecap="square" stroke-miterlimit="10"
              pointer-events="none"/>
        <path d="M 1777.15 538.99 C 1777.04 539.35 1775.67 544.06 1774.1 549.45 C 1772.53 554.84 1771.27 559.27 1771.31 559.3 C 1771.34 559.33 1775.26 556.97 1780.02 554.07 C 1784.78 551.17 1788.94 548.64 1789.27 548.44 L 1789.86 548.08 L 1783.6 543.2 L 1777.34 538.32 L 1777.15 538.99 Z"
              fill="#000000" stroke="#000000" stroke-width="2.24"
              stroke-linejoin="round" stroke-linecap="square"
              stroke-miterlimit="10" pointer-events="none"/>
        <path d="M 1809.89 507.79 L 1779.09 549.79" fill="none" stroke="#000000"
              stroke-width="5.6" stroke-linejoin="round" stroke-linecap="round"
              stroke-miterlimit="10" pointer-events="none"/>
        <path d="M 1790.49 567.7 C 1790.39 568.07 1789.01 572.78 1787.44 578.17 C 1785.87 583.56 1784.62 587.99 1784.65 588.02 C 1784.68 588.04 1788.6 585.69 1793.36 582.79 C 1798.12 579.89 1802.28 577.35 1802.61 577.16 L 1803.2 576.8 L 1796.94 571.92 L 1790.68 567.03 L 1790.49 567.7 Z"
              fill="#000000" stroke="#000000" stroke-width="2.24"
              stroke-linejoin="round" stroke-linecap="round"
              stroke-miterlimit="10" pointer-events="none"/>
        <path d="M 1823.23 536.51 L 1792.43 578.51" fill="none" stroke="#000000"
              stroke-width="5.6" stroke-linejoin="round" stroke-linecap="round"
              stroke-miterlimit="10" pointer-events="none"/>
        <rect x="1584.8" y="504" width="42" height="39.2" fill-opacity="0"
              fill="#dae2f2" stroke="none" pointer-events="none"/>
        <g fill="#000000" font-family="Arial,Helvetica" font-weight="bold"
           text-anchor="middle" font-size="33.599999999999994px">
            <text x="1605.8" y="534.8">
                R1
            </text>
        </g>
        <rect x="1248.8" y="560" width="350" height="36.4" fill-opacity="0"
              fill="#dae2f2" stroke="none" pointer-events="none"/>
        <g fill="#000000" font-family="Arial,Helvetica" font-weight="bold"
           text-anchor="middle" font-size="33.599999999999994px">
            <text x="1423.8" y="589.4">
                Intercom LDR, 4-40k
            </text>
        </g>
        <rect x="1705.2" y="809.2" width="5.6" height="5.6" fill="#000000"
              stroke="none" pointer-events="none"/>
        <rect x="1705.2" y="1005.2" width="5.6" height="5.6" fill="#000000"
              stroke="none" pointer-events="none"/>
        <ellipse cx="1708" cy="910" rx="69.478171742" ry="69.478171742"
                 fill="#ffffff" stroke="#000000" stroke-width="5.6"
                 pointer-events="none"/>
        <path d="M 1708 859.6 L 1727.6 868 L 1708 876.4" fill="none"
              stroke="#000000" stroke-width="5.6" stroke-linejoin="round"
              stroke-linecap="round" stroke-miterlimit="10"
              pointer-events="none"/>
        <path d="M 1708 876.4 L 1688.4 884.8 L 1708 893.2" fill="none"
              stroke="#000000" stroke-width="5.6" stroke-linejoin="round"
              stroke-linecap="round" stroke-miterlimit="10"
              pointer-events="none"/>
        <path d="M 1708 893.2 L 1727.6 901.6 L 1708 910" fill="none"
              stroke="#000000" stroke-width="5.6" stroke-linejoin="round"
              stroke-linecap="round" stroke-miterlimit="10"
              pointer-events="none"/>
        <path d="M 1708 910 L 1688.4 918.4 L 1708 926.8" fill="none"
              stroke="#000000" stroke-width="5.6" stroke-linejoin="round"
              stroke-linecap="round" stroke-miterlimit="10"
              pointer-events="none"/>
        <path d="M 1708 926.8 L 1727.6 935.2 L 1708 943.6" fill="none"
              stroke="#000000" stroke-width="5.6" stroke-linejoin="round"
              stroke-linecap="round" stroke-miterlimit="10"
              pointer-events="none"/>
        <path d="M 1708 943.6 L 1688.4 952 L 1708 960.4" fill="none"
              stroke="#000000" stroke-width="5.6" stroke-linejoin="round"
              stroke-linecap="round" stroke-miterlimit="10"
              pointer-events="none"/>
        <path d="M 1708 814.8 L 1708 856.8" fill="none" stroke="#000000"
              stroke-width="5.6" stroke-linecap="square" stroke-miterlimit="10"
              pointer-events="none"/>
        <path d="M 1708 963.2 L 1708 1005.2" fill="none" stroke="#000000"
              stroke-width="5.6" stroke-linecap="square" stroke-miterlimit="10"
              pointer-events="none"/>
        <path d="M 1777.15 846.99 C 1777.04 847.35 1775.67 852.06 1774.1 857.45 C 1772.53 862.84 1771.27 867.27 1771.31 867.3 C 1771.34 867.33 1775.26 864.97 1780.02 862.07 C 1784.78 859.17 1788.94 856.64 1789.27 856.44 L 1789.86 856.08 L 1783.6 851.2 L 1777.34 846.32 L 1777.15 846.99 Z"
              fill="#000000" stroke="#000000" stroke-width="2.24"
              stroke-linejoin="round" stroke-linecap="square"
              stroke-miterlimit="10" pointer-events="none"/>
        <path d="M 1809.89 815.79 L 1779.09 857.79" fill="none" stroke="#000000"
              stroke-width="5.6" stroke-linejoin="round" stroke-linecap="round"
              stroke-miterlimit="10" pointer-events="none"/>
        <path d="M 1790.49 875.7 C 1790.39 876.07 1789.01 880.78 1787.44 886.17 C 1785.87 891.56 1784.62 895.99 1784.65 896.02 C 1784.68 896.04 1788.6 893.69 1793.36 890.79 C 1798.12 887.89 1802.28 885.35 1802.61 885.16 L 1803.2 884.8 L 1796.94 879.92 L 1790.68 875.03 L 1790.49 875.7 Z"
              fill="#000000" stroke="#000000" stroke-width="2.24"
              stroke-linejoin="round" stroke-linecap="round"
              stroke-miterlimit="10" pointer-events="none"/>
        <path d="M 1823.23 844.51 L 1792.43 886.51" fill="none" stroke="#000000"
              stroke-width="5.6" stroke-linejoin="round" stroke-linecap="round"
              stroke-miterlimit="10" pointer-events="none"/>
        <rect x="1584.8" y="812" width="39.2" height="36.4" fill-opacity="0"
              fill="#dae2f2" stroke="none" pointer-events="none"/>
        <g fill="#000000" font-family="Arial,Helvetica" font-weight="bold"
           text-anchor="middle" font-size="33.599999999999994px">
            <text x="1604.4" y="841.4">
                R2
            </text>
        </g>
        <rect x="1254.4" y="868" width="344.4" height="36.4" fill-opacity="0"
              fill="#dae2f2" stroke="none" pointer-events="none"/>
        <g fill="#000000" font-family="Arial,Helvetica" font-weight="bold"
           text-anchor="middle" font-size="33.599999999999994px">
            <text x="1426.6" y="897.4">
                Ambient LDR, 4-40k
            </text>
        </g>
        <rect x="1705.2" y="1089.2" width="5.6" height="5.6" fill="#000000"
              stroke="none" pointer-events="none"/>
        <rect x="1705.2" y="1257.2" width="5.6" height="5.6" fill="#000000"
              stroke="none" pointer-events="none"/>
        <rect x="1789.2" y="1173.2" width="5.6" height="5.6" fill="#000000"
              stroke="none" pointer-events="none"/>
        <path d="M 1708 1125.6 L 1727.6 1134 L 1708 1142.4" fill="none"
              stroke="#000000" stroke-width="5.6" stroke-linejoin="round"
              stroke-linecap="round" stroke-miterlimit="10"
              pointer-events="none"/>
        <path d="M 1708 1142.4 L 1688.4 1150.8 L 1708 1159.2" fill="none"
              stroke="#000000" stroke-width="5.6" stroke-linejoin="round"
              stroke-linecap="round" stroke-miterlimit="10"
              pointer-events="none"/>
        <path d="M 1708 1159.2 L 1727.6 1167.6 L 1708 1176" fill="none"
              stroke="#000000" stroke-width="5.6" stroke-linejoin="round"
              stroke-linecap="round" stroke-miterlimit="10"
              pointer-events="none"/>
        <path d="M 1708 1176 L 1688.4 1184.4 L 1708 1192.8" fill="none"
              stroke="#000000" stroke-width="5.6" stroke-linejoin="round"
              stroke-linecap="round" stroke-miterlimit="10"
              pointer-events="none"/>
        <path d="M 1708 1192.8 L 1727.6 1201.2 L 1708 1209.6" fill="none"
              stroke="#000000" stroke-width="5.6" stroke-linejoin="round"
              stroke-linecap="round" stroke-miterlimit="10"
              pointer-events="none"/>
        <path d="M 1708 1209.6 L 1688.4 1218 L 1708 1226.4" fill="none"
              stroke="#000000" stroke-width="5.6" stroke-linejoin="round"
              stroke-linecap="round" stroke-miterlimit="10"
              pointer-events="none"/>
        <path d="M 1708 1094.8 L 1708 1122.8" fill="#000000" stroke="#000000"
              stroke-width="5.6" stroke-linecap="square" stroke-miterlimit="10"
              pointer-events="none"/>
        <path d="M 1708 1229.2 L 1708 1257.2" fill="#000000" stroke="#000000"
              stroke-width="5.6" stroke-linecap="square" stroke-miterlimit="10"
              pointer-events="none"/>
        <path d="M 1750 1176 L 1789.2 1176" fill="#000000" stroke="#000000"
              stroke-width="5.6" stroke-linecap="square" stroke-miterlimit="10"
              pointer-events="none"/>
        <path d="M 1754.97 1183.52 C 1754.5 1183.38 1748.47 1181.66 1741.56 1179.69 C 1734.66 1177.72 1729.01 1176.07 1729.01 1176.03 C 1729.01 1175.99 1734.68 1174.4 1741.6 1172.5 C 1748.52 1170.6 1754.57 1168.94 1755.04 1168.81 L 1755.9 1168.57 L 1755.86 1176.17 L 1755.82 1183.76 L 1754.97 1183.52 Z"
              fill="#000000" stroke="#000000" stroke-width="2.52"
              stroke-linejoin="round" stroke-linecap="square"
              stroke-miterlimit="10" pointer-events="none"/>
        <rect x="1640.8" y="1092" width="42" height="39.2" fill-opacity="0"
              fill="#dae2f2" stroke="none" pointer-events="none"/>
        <g fill="#000000" font-family="Arial,Helvetica" font-weight="bold"
           text-anchor="middle" font-size="33.599999999999994px">
            <text x="1661.8" y="1122.8">
                R3
            </text>
        </g>
        <rect x="1512" y="1148" width="137.2" height="39.2" fill-opacity="0"
              fill="#dae2f2" stroke="none" pointer-events="none"/>
        <g fill="#000000" font-family="Arial,Helvetica" font-weight="bold"
           text-anchor="middle" font-size="33.599999999999994px">
            <text x="1580.6" y="1178.8">
                0-10k
            </text>
        </g>
        <path d="M 1708 700 L 1708 812" fill="none" stroke="#000000"
              stroke-width="5.6" stroke-miterlimit="10" pointer-events="none"/>
        <path d="M 1708 1008 L 1708 1092" fill="none" stroke="#000000"
              stroke-width="5.6" stroke-miterlimit="10" pointer-events="none"/>
        <rect x="1705.2" y="1313.2" width="5.6" height="5.6" fill="#000000"
              stroke="none" pointer-events="none"/>
        <path d="M 1677.2 1374.8 C 1738.86 1374.8 1738.86 1374.8 1738.86 1374.8"
              fill="none" stroke="#000000" stroke-width="5.6"
              stroke-linecap="round" stroke-miterlimit="10"
              pointer-events="none"/>
        <path d="M 1688.4 1391.6 C 1715.2 1391.6 1727.6 1391.6 1727.6 1391.6"
              fill="none" stroke="#000000" stroke-width="5.6"
              stroke-linecap="round" stroke-miterlimit="10"
              pointer-events="none"/>
        <path d="M 1699.6 1408.4 C 1708.34 1408.4 1716.4 1408.4 1716.4 1408.4"
              fill="none" stroke="#000000" stroke-width="5.6"
              stroke-linecap="round" stroke-miterlimit="10"
              pointer-events="none"/>
        <path d="M 1708 1318.8 L 1708 1369.2" fill="#000000" stroke="#000000"
              stroke-width="5.6" stroke-linecap="square" stroke-miterlimit="10"
              pointer-events="none"/>
        <rect x="1705.2" y="445.2" width="5.6" height="5.6" fill="#000000"
              stroke="none" pointer-events="none"/>
        <g fill="#000000" font-family="Arial,Helvetica" text-anchor="middle"
           font-size="33.60000000000001px">
            <text x="1707.13" y="377.61">
                Vss
            </text>
        </g>
        <path d="M 1708 394.8 L 1708 445.2" fill="#000000" stroke="#000000"
              stroke-width="5.6" stroke-linecap="square" stroke-miterlimit="10"
              pointer-events="none"/>
        <path d="M 1680 392 L 1736 392" fill="none" stroke="#000000"
              stroke-width="5.6" stroke-linecap="square" stroke-miterlimit="10"
              pointer-events="none"/>
        <rect x="1764" y="336" width="89.6" height="39.2" fill-opacity="0"
              fill="#dae2f2" stroke="none" pointer-events="none"/>
        <g fill="#000000" font-family="Arial,Helvetica" font-weight="bold"
           text-anchor="middle" font-size="33.599999999999994px">
            <text x="1808.8" y="366.8">
                +4.5V
            </text>
        </g>
        <path d="M 1708 504 L 1708 448" fill="none" stroke="#000000"
              stroke-width="5.6" stroke-miterlimit="10" pointer-events="none"/>
        <rect x="1397.2" y="753.2" width="5.6" height="5.6" fill="#000000"
              stroke="none" pointer-events="none"/>
        <path d="M 1349.6 756 L 1397.2 756" fill="#000000" stroke="#000000"
              stroke-width="5.6" stroke-linecap="square" stroke-miterlimit="10"
              pointer-events="none"/>
        <path d="M 1363.35 740.15 L 1347.53 756 L 1363.35 771.85" fill="none"
              stroke="#000000" stroke-width="5.6" stroke-linecap="square"
              stroke-miterlimit="10" pointer-events="none"/>
        <rect x="1148" y="672" width="352.8" height="39.2" fill-opacity="0"
              fill="#dae2f2" stroke="none" pointer-events="none"/>
        <g fill="#000000" font-family="Arial,Helvetica" font-weight="bold"
           text-anchor="middle" font-size="33.599999999999994px">
            <text x="1324.4" y="702.8">
                to Atmel328 pin 23 (A0)
            </text>
        </g>
        <path d="M 1400 756 L 1702.4 756" fill="none" stroke="#000000"
              stroke-width="5.6" stroke-miterlimit="10" pointer-events="none"/>
        <ellipse cx="1708" cy="756" rx="5.6" ry="5.6" fill="#000000"
                 stroke="#000000" stroke-width="5.6" pointer-events="none"/>
        <path d="M 1792 1176 L 1792 1316 L 1713.6 1316" fill="none"
              stroke="#000000" stroke-width="5.6" stroke-miterlimit="10"
              pointer-events="none"/>
        <ellipse cx="1708" cy="1316" rx="5.6" ry="5.6" fill="#000000"
                 stroke="#000000" stroke-width="5.6" pointer-events="none"/>
        <path d="M 1708 1260 L 1708 1310.4" fill="none" stroke="#000000"
              stroke-width="5.6" stroke-miterlimit="10" pointer-events="none"/>
        <ellipse cx="1708" cy="1316" rx="5.6" ry="5.6" fill="#000000"
                 stroke="#000000" stroke-width="5.6" pointer-events="none"/>
        <rect x="1932" y="448" width="336" height="364"
              fill="url(#mx-gradient-dbdbdb-1-dbdbdb-1-s-0)" stroke="#000000"
              stroke-width="2.8" pointer-events="none"/>
        <rect x="2044" y="392" width="120.4" height="36.4" fill-opacity="0"
              fill="#dae2f2" stroke="none" pointer-events="none"/>
        <g fill="#000000" font-family="Arial,Helvetica" font-weight="bold"
           text-anchor="middle" font-size="33.599999999999994px">
            <text x="2104.2" y="421.4">
                Intercom
            </text>
        </g>
        <rect x="1985.2" y="529.2" width="5.6" height="5.6" fill="#000000"
              stroke="none"
              transform="translate(2016,0)scale(-1,1)translate(-2016,0)"
              pointer-events="none"/>
        <rect x="1985.2" y="697.2" width="5.6" height="5.6" fill="#000000"
              stroke="none"
              transform="translate(2016,0)scale(-1,1)translate(-2016,0)"
              pointer-events="none"/>
        <ellipse cx="1988" cy="616" rx="55.003430258" ry="55.003430258"
                 fill="#ffffff" stroke="#000000" stroke-width="5.6"
                 transform="translate(2016,0)scale(-1,1)translate(-2016,0)"
                 pointer-events="none"/>
        <path d="M 1965.6 594.32 C 2027.2 594.32 2010.4 594.32 2010.4 594.32"
              fill="none" stroke="#000000" stroke-width="5.6"
              stroke-linecap="round" stroke-miterlimit="10"
              transform="translate(2016,0)scale(-1,1)translate(-2016,0)"
              pointer-events="none"/>
        <path d="M 1987.61 595.1 C 1987.61 595.1 1987.61 595.1 1965.6 636.32 C 2009.62 636.32 2009.62 636.32 2009.62 636.32 Z"
              fill="#000000" stroke="#000000" stroke-width="4.17"
              stroke-linejoin="round" stroke-linecap="round"
              stroke-miterlimit="10"
              transform="translate(2016,0)scale(-1,1)translate(-2016,0)"
              pointer-events="none"/>
        <path d="M 1988 534.8 L 1988 697.2" fill="#000000" stroke="#000000"
              stroke-width="5.6" stroke-linecap="square" stroke-miterlimit="10"
              transform="translate(2016,0)scale(-1,1)translate(-2016,0)"
              pointer-events="none"/>
        <path d="M 2062.19 590.86 L 2074.07 602.74 L 2081.99 582.94 Z"
              fill="#000000" stroke="#000000" stroke-width="2.8"
              stroke-linejoin="round" stroke-linecap="square"
              stroke-miterlimit="10"
              transform="translate(2016,0)scale(-1,1)translate(-2016,0)"
              pointer-events="none"/>
        <path d="M 2050.31 614.67 L 2074.07 590.91" fill="none" stroke="#000000"
              stroke-width="5.6" stroke-linejoin="round" stroke-linecap="round"
              stroke-miterlimit="10"
              transform="translate(2016,0)scale(-1,1)translate(-2016,0)"
              pointer-events="none"/>
        <path d="M 2057.49 559.9 L 2069.37 571.78 L 2077.29 551.98 Z"
              fill="#000000" stroke="#000000" stroke-width="2.8"
              stroke-linejoin="round" stroke-linecap="round"
              stroke-miterlimit="10"
              transform="translate(2016,0)scale(-1,1)translate(-2016,0)"
              pointer-events="none"/>
        <path d="M 2045.66 583.61 L 2069.41 559.85" fill="none" stroke="#000000"
              stroke-width="5.6" stroke-linejoin="round" stroke-linecap="round"
              stroke-miterlimit="10"
              transform="translate(2016,0)scale(-1,1)translate(-2016,0)"
              pointer-events="none"/>
        <rect x="2097.2" y="532" width="36.4" height="39.2" fill-opacity="0"
              fill="#dae2f2" stroke="none" pointer-events="none"/>
        <g fill="#000000" font-family="Arial,Helvetica" font-weight="bold"
           text-anchor="middle" font-size="33.599999999999994px">
            <text x="2115.4" y="562.8">
                L1
            </text>
        </g>
        <rect x="1901.2" y="949.2" width="5.6" height="5.6" fill="#000000"
              stroke="none" pointer-events="none"/>
        <rect x="1901.2" y="1089.2" width="5.6" height="5.6" fill="#000000"
              stroke="none" pointer-events="none"/>
        <path d="M 1873.2 1010.8 C 1934.8 1010.8 1934.8 1010.8 1934.8 1010.8"
              fill="none" stroke="#000000" stroke-width="5.6"
              stroke-linecap="round" stroke-miterlimit="10"
              pointer-events="none"/>
        <path d="M 1873.2 1033.2 C 1934.8 1033.2 1934.8 1033.2 1934.8 1033.2"
              fill="none" stroke="#000000" stroke-width="5.6"
              stroke-linecap="round" stroke-miterlimit="10"
              pointer-events="none"/>
        <path d="M 1904 954.8 L 1904 1008" fill="#000000" stroke="#000000"
              stroke-width="5.6" stroke-linecap="square" stroke-miterlimit="10"
              pointer-events="none"/>
        <path d="M 1904 1036 L 1904 1089.2" fill="#000000" stroke="#000000"
              stroke-width="5.6" stroke-linecap="square" stroke-miterlimit="10"
              pointer-events="none"/>
        <rect x="1808.8" y="952" width="42" height="39.2" fill-opacity="0"
              fill="#dae2f2" stroke="none" pointer-events="none"/>
        <g fill="#000000" font-family="Arial,Helvetica" font-weight="bold"
           text-anchor="middle" font-size="33.599999999999994px">
            <text x="1829.8" y="982.8">
                C1
            </text>
        </g>
        <rect x="1769.6" y="1024.8" width="86.8" height="39.2" fill-opacity="0"
              fill="#dae2f2" stroke="none" pointer-events="none"/>
        <g fill="#000000" font-family="Arial,Helvetica" font-weight="bold"
           text-anchor="middle" font-size="33.599999999999994px">
            <text x="1813" y="1055.6">
                0.1µ
            </text>
        </g>
        <path d="M 1904 952 L 1904 756 L 1713.6 756" fill="none"
              stroke="#000000" stroke-width="5.6" stroke-miterlimit="10"
              pointer-events="none"/>
        <ellipse cx="1708" cy="756" rx="5.6" ry="5.6" fill="#000000"
                 stroke="#000000" stroke-width="5.6" pointer-events="none"/>
        <path d="M 1904 1092 L 1904 1316 L 1797.6 1316" fill="none"
              stroke="#000000" stroke-width="5.6" stroke-miterlimit="10"
              pointer-events="none"/>
        <ellipse cx="1792" cy="1316" rx="5.6" ry="5.6" fill="#000000"
                 stroke="#000000" stroke-width="5.6" pointer-events="none"/>
    </g>
</svg>
